<?xml version="1.0" encoding="utf-8"?>
<!-- Generator: Adobe Illustrator 26.1.0, SVG Export Plug-In . SVG Version: 6.00 Build 0)  -->
<svg version="1.1" id="Layer_1" xmlns="http://www.w3.org/2000/svg" xmlns:xlink="http://www.w3.org/1999/xlink" x="0px" y="0px"
	 viewBox="0 0 1080 1080" style="enable-background:new 0 0 1080 1080;" xml:space="preserve">
<style type="text/css">
	.st0{stroke:#000000;stroke-miterlimit:10;}
	.st1{fill:none;stroke:#000000;stroke-width:40;stroke-miterlimit:10;}
	.st2{fill:#FFFFFF;}
</style>
<path class="st0" d="M73.04,1080c0-262.22,212.57-474.78,474.78-474.78s474.78,212.57,474.78,474.78"/>
<circle class="st0" cx="547.83" cy="357.1" r="232.17"/>
<g>
	<polygon class="st1" points="826.85,530.29 826.85,709.55 999.25,709.55 999.25,755.32 826.85,755.32 826.85,936.11 778.03,936.11 
		778.03,755.32 605.64,755.32 605.64,709.55 778.03,709.55 778.03,530.29 	"/>
	<polygon class="st2" points="826.85,530.29 826.85,709.55 999.25,709.55 999.25,755.32 826.85,755.32 826.85,936.11 778.03,936.11 
		778.03,755.32 605.64,755.32 605.64,709.55 778.03,709.55 778.03,530.29 	"/>
</g>
</svg>
